<?xml version="1.0" encoding="utf-8"?>
<svg width="189px" height="53px" viewBox="0 0 189 53" version="1.1" xmlns:xlink="http://www.w3.org/1999/xlink" xmlns="http://www.w3.org/2000/svg">
  <g id="Logo">
    <g id="Logo">
      <path d="M35.787 3.889L30.891 13.61C26.93 11.377 23.474 10.297 19.945 10.297C16.633 10.297 15.121 11.233 15.121 13.177C15.121 14.761 15.912 15.698 18.937 17.57L27.361 22.97C34.058 27.219 36.795 31.395 36.795 37.587C36.795 47.237 30.17 52.565 18.505 52.565C11.952 52.565 5.544 50.765 0 47.525L5.04 37.516C9.648 40.539 14.473 42.196 18.937 42.196C23.041 42.196 25.346 40.612 25.346 38.091C25.346 36.219 24.121 34.78 20.521 32.547L12.744 27.578C6.695 23.762 3.672 19.154 3.672 13.322C3.672 5.04 9.721 0 19.873 0C25.201 0 30.746 1.368 35.787 3.889" transform="translate(29.0948 -0.0003)" id="Fill-1" fill="#404040" fill-rule="evenodd" stroke="none" />
      <path d="M0.432 50.405L11.305 50.405L11.305 17.138L0.432 17.138L0.432 50.405ZM0 12.097L11.737 12.097L11.737 0L0 0L0 12.097Z" transform="translate(70.926 1.0795)" id="Fill-4" fill="#404040" fill-rule="evenodd" stroke="none" />
      <path d="M22.754 0.145L22.754 10.802C21.098 10.658 20.449 10.658 19.514 10.658C14.113 10.658 10.873 13.322 10.873 20.739L10.873 34.276L0 34.276L0 1.009L10.297 1.009C10.297 4.393 10.08 7.633 9.288 11.954L9.576 12.026C11.305 3.673 14.977 0 20.161 0C21.241 0 22.033 0.073 22.754 0.145" transform="translate(89.5731 17.2086)" id="Fill-6" fill="#404040" fill-rule="evenodd" stroke="none" />
      <path d="M10.225 14.258L10.37 14.474C10.801 13.97 12.098 13.825 13.394 13.825L20.666 13.825C21.891 13.825 22.971 13.898 23.403 14.402L23.547 14.258C23.33 10.154 20.883 8.066 17.21 8.066C13.394 8.066 10.73 10.369 10.225 14.258M34.131 17.498L34.131 20.378L14.402 20.378C12.53 20.378 11.594 20.307 10.514 19.514L10.37 19.731L10.658 20.523C11.594 24.339 14.402 26.427 18.938 26.427C22.754 26.427 26.284 24.987 28.587 23.475L32.188 31.755C28.155 34.132 23.979 35.356 19.01 35.356C7.489 35.356 0 28.731 0 17.571C0 6.625 7.346 0 17.643 0C27.868 0 34.131 6.265 34.131 17.498" transform="translate(114.5553 17.2088)" id="Fill-7" fill="#404040" fill-rule="evenodd" stroke="none" />
      <path d="M34.203 13.537L34.203 34.347L23.401 34.347L23.401 16.561C23.401 11.808 21.313 9.505 17.786 9.505C13.681 9.505 10.873 11.953 10.873 18.289L10.873 34.347L0 34.347L0 1.08L10.729 1.08C10.729 5.184 10.513 6.553 10.081 8.568L10.368 8.713C12.386 3.816 15.841 0 22.538 0C29.954 0 34.203 4.536 34.203 13.537" transform="translate(153.8673 17.1379)" id="Fill-8" fill="#404040" fill-rule="evenodd" stroke="none" />
      <path d="M2.538 0L2.538 2.935C2.538 3.187 2.503 3.313 2.448 3.402L2.484 3.438C2.574 3.402 2.772 3.385 3.024 3.385L12.603 3.385L12.603 6.176L3.024 6.176C2.772 6.176 2.574 6.139 2.484 6.104L2.448 6.139C2.503 6.229 2.538 6.355 2.538 6.607L2.538 9.561L0 9.561L0 0L2.538 0Z" transform="translate(0.2706 37.334)" id="Fill-9" fill="#404040" fill-rule="evenodd" stroke="none" />
      <path d="M3.835 5.834C5.06 5.834 5.654 5.888 6.41 6.031L6.446 5.959C5.168 5.42 4.285 4.609 4.285 3.007C4.285 1.152 5.42 0 7.671 0L12.874 0L12.874 2.701L8.427 2.701C7.112 2.701 6.662 3.24 6.662 4.123C6.662 5.077 7.274 5.834 8.858 5.834L12.874 5.834L12.874 8.553L0 8.553L0 5.834L3.835 5.834Z" transform="translate(0 27.7578)" id="Fill-10" fill="#404040" fill-rule="evenodd" stroke="none" />
      <path d="M3.564 5.979L3.619 5.942C3.493 5.834 3.457 5.51 3.457 5.186L3.457 3.368C3.457 3.061 3.474 2.791 3.6 2.684L3.564 2.647C2.538 2.702 2.016 3.313 2.016 4.232C2.016 5.186 2.592 5.852 3.564 5.979M4.375 0L5.095 0L5.095 4.934C5.095 5.403 5.077 5.636 4.878 5.907L4.933 5.942L5.13 5.871C6.085 5.636 6.607 4.934 6.607 3.799C6.607 2.846 6.248 1.963 5.869 1.387L7.94 0.487C8.534 1.495 8.84 2.54 8.84 3.782C8.84 6.663 7.183 8.536 4.392 8.536C1.656 8.536 0 6.699 0 4.124C0 1.567 1.566 0 4.375 0" transform="translate(4.3042 17.9292)" id="Fill-11" fill="#404040" fill-rule="evenodd" stroke="none" />
    </g>
  </g>
</svg>